<?xml version="1.0" encoding="UTF-8"?>
<!DOCTYPE svg PUBLIC "-//W3C//DTD SVG 1.1//EN" "http://www.w3.org/Graphics/SVG/1.1/DTD/svg11.dtd">
<!-- Creator: CorelDRAW X7 -->
<svg xmlns="http://www.w3.org/2000/svg" xml:space="preserve" width="3000px" height="3000px" version="1.1" style="shape-rendering:geometricPrecision; text-rendering:geometricPrecision; image-rendering:optimizeQuality; fill-rule:evenodd; clip-rule:evenodd"
viewBox="0 0 3000 3000"
 xmlns:xlink="http://www.w3.org/1999/xlink">
 <defs>
  <style type="text/css">
   <![CDATA[
    .fil0 {fill:none}
    .fil3 {fill:#FEFEFE}
    .fil1 {fill:#FDD100}
    .fil2 {fill:#2F318B}
   ]]>
  </style>
 </defs>
 <g id="Layer_x0020_1">
  <metadata id="CorelCorpID_0Corel-Layer"/>
  <g id="_2101482154464">
   <polygon class="fil0" points="0,0 3000,0 3000,3000 0,3000 "/>
   <g>
    <path class="fil1" d="M2647 1434l58 5 -36 204 -60 -17c-15,50 -33,99 -53,145l61 26 -96 183 -59 -38c-29,43 -60,83 -93,122l56 47 -146 146 -50 -59c-39,33 -80,62 -124,89l43 67 -183 95 -31 -74c-47,19 -95,35 -145,48l21 78 -203 36 -7 -82c-25,2 -50,4 -75,4l0 441 -52 0c0,-47 -67,-191 -140,-287 -71,-92 -188,-156 -248,-178 -165,-61 -314,-158 -437,-280 -218,-218 -353,-519 -353,-851l0 0 0 0c0,-332 135,-633 353,-851 218,-218 519,-353 851,-353l0 0 0 0c332,0 633,135 851,353 218,218 353,519 353,851l0 0 0 0c0,26 -1,51 -2,77l-49 0c-1,18 -3,35 -5,53zm-1174 1328l0 -401c-443,-12 -814,-325 -928,-747 -61,-20 -114,-45 -154,-73 46,217 156,412 307,564 111,110 244,198 391,255 49,20 101,48 144,74 127,78 199,184 240,328zm-852 -1128c118,373 454,646 852,658l0 -315c0,-19 5,-36 10,-53 21,-67 82,-115 156,-147 72,-30 169,-44 241,-44 19,0 37,1 54,3 -17,-17 -41,-31 -72,-31l-65 0 -31 0 7 -31c2,-11 6,-31 -2,-45l0 0c-7,-15 -28,-27 -77,-27l-221 0 0 -221 -1105 0c103,149 299,235 467,267 -89,3 -130,2 -214,-14zm904 -148c7,-7 14,-14 22,-20 42,-34 99,-64 157,-85l-179 0 0 105zm334 -105c-85,10 -211,55 -286,116 -16,13 -30,26 -40,40 -3,5 -6,10 -8,15l0 0 156 0c73,0 107,25 122,54l0 0c9,16 11,33 10,48l36 0c63,0 106,38 129,72 5,7 8,14 11,20 3,7 6,13 7,18l0 1 13 45 -44 -15c-26,-8 -60,-12 -97,-12 -67,0 -144,13 -209,40 -62,27 -112,65 -128,116 -4,12 -6,24 -6,38l0 303c259,-7 493,-115 664,-286 160,-160 265,-375 283,-613l-613 0zm-39 -999c96,121 170,259 217,408 61,-18 120,-38 178,-61 42,-17 84,-36 124,-56 25,-12 49,-25 74,-38 -35,-47 -72,-91 -113,-132 -80,-80 -172,-148 -273,-201 -15,7 -31,15 -47,22 -24,11 -49,21 -74,30 -28,10 -57,19 -86,28zm231 456c28,103 43,210 43,318 0,46 -2,101 -8,149l546 0c0,0 0,0 0,-1l0 0 0 0c0,-232 -70,-448 -191,-628 -26,15 -52,29 -80,42 -41,21 -84,40 -128,57 -59,24 -119,45 -182,63zm-15 467c5,-48 8,-102 8,-149 0,-104 -14,-206 -41,-305 -154,40 -316,62 -478,64l0 390 511 0zm-47 -502c-48,-149 -124,-288 -223,-408 -79,19 -160,29 -241,31l0 439c157,-2 314,-24 464,-62zm-756 -409c-100,120 -177,261 -224,411 149,38 306,58 464,60l0 -439c-80,-2 -161,-14 -240,-32zm-238 459c-27,98 -41,200 -41,303 0,47 3,101 8,149l511 0 0 -390c-162,-2 -325,-23 -478,-62zm-83 452c-5,-48 -8,-103 -8,-149 0,-107 15,-213 42,-316 -12,-3 -25,-7 -37,-11 -127,-38 -246,-89 -354,-151 -119,180 -189,395 -189,626l0 0 0 0c0,1 0,1 0,1l546 0zm48 -513c47,-150 123,-290 220,-413 -3,0 -6,-1 -9,-2 -68,-20 -134,-46 -197,-77 -102,54 -195,123 -276,203 -41,42 -79,86 -114,134 103,59 218,108 339,144 13,4 25,8 37,11zm72 -520c49,22 101,41 153,57 14,4 28,8 43,12 89,22 180,35 271,35l0 0c132,0 265,-24 390,-69 24,-9 48,-19 71,-29 3,-1 7,-3 10,-4 -144,-66 -303,-103 -471,-103l0 0 0 0c-166,0 -325,36 -467,101z"/>
    <path class="fil2" d="M1032 272c49,22 101,41 153,57 14,4 28,8 43,12 89,22 180,35 271,35l0 0c132,0 265,-24 390,-69 24,-9 48,-19 71,-29 3,-1 7,-3 10,-4 -144,-66 -303,-103 -471,-103l0 0 0 0c-166,0 -325,36 -467,101zm675 1364c14,0 25,11 25,24 0,14 -11,25 -25,25 -13,0 -24,-11 -24,-25 0,-13 11,-24 24,-24zm-234 597l0 -256c0,-19 5,-36 10,-53 21,-67 82,-115 156,-147 72,-30 169,-44 241,-44 19,0 37,1 54,3 -17,-17 -41,-31 -72,-31l-65 0 -31 0 7 -31c2,-11 6,-31 -2,-45l0 0c-7,-15 -28,-27 -77,-27l-221 0 0 -221 -1105 0c103,149 299,235 467,267 -63,2 -102,2 -150,-4 118,335 426,578 788,589zm0 529l0 -401c-443,-12 -814,-325 -928,-747 -61,-20 -114,-45 -154,-73 46,217 156,412 307,564 111,110 244,198 391,255 49,20 101,48 144,74 127,78 199,184 240,328zm386 -1381c-85,10 -211,55 -286,116 -16,13 -30,26 -40,40 -3,5 -6,10 -8,15l0 0 156 0c73,0 107,25 122,54l0 0c9,16 11,33 10,48l36 0c63,0 106,38 129,72 5,7 8,14 11,20 3,7 6,13 7,18l0 1 13 45 -44 -15c-26,-8 -60,-12 -97,-12 -67,0 -144,13 -209,40 -62,27 -112,65 -128,116 -4,12 -6,24 -6,38l0 303c259,-7 493,-115 664,-286 160,-160 265,-375 283,-613l-613 0zm-39 -999c96,121 170,259 217,408 61,-18 120,-38 178,-61 42,-17 84,-36 124,-56 25,-12 49,-25 74,-38 -35,-47 -72,-91 -113,-132 -80,-80 -172,-148 -273,-201 -15,7 -31,15 -47,22 -24,11 -49,21 -74,30 -28,10 -57,19 -86,28zm231 456c28,103 43,210 43,318 0,46 -2,101 -8,149l546 0c0,0 0,0 0,-1l0 0 0 0c0,-232 -70,-448 -191,-628 -26,15 -52,29 -80,42 -41,21 -84,40 -128,57 -59,24 -119,45 -182,63zm-15 467c5,-48 8,-102 8,-149 0,-104 -14,-206 -41,-305 -154,40 -316,62 -478,64l0 390 511 0zm-47 -502c-48,-149 -124,-288 -223,-408 -79,19 -160,29 -241,31l0 439c157,-2 314,-24 464,-62zm-756 -409c-100,120 -177,261 -224,411 149,38 306,58 464,60l0 -439c-80,-2 -161,-14 -240,-32zm-238 459c-27,98 -41,200 -41,303 0,47 3,101 8,149l511 0 0 -390c-162,-2 -325,-23 -478,-62zm-83 452c-5,-48 -8,-103 -8,-149 0,-107 15,-213 42,-316 -12,-3 -25,-7 -37,-11 -127,-38 -246,-89 -354,-151 -119,180 -189,395 -189,626l0 0 0 0c0,1 0,1 0,1l546 0zm48 -513c47,-150 123,-290 220,-413 -3,0 -6,-1 -9,-2 -68,-20 -134,-46 -197,-77 -102,54 -195,123 -276,203 -41,42 -79,86 -114,134 103,59 218,108 339,144 13,4 25,8 37,11z"/>
    <path class="fil3" d="M621 1634c118,373 454,646 852,658l0 -59c-362,-11 -670,-254 -788,-589 -19,-2 -40,-5 -64,-10zm1086 2c14,0 25,11 25,24 0,14 -11,25 -25,25 -13,0 -24,-11 -24,-25 0,-13 11,-24 24,-24zm-182 -150c7,-7 14,-14 22,-20 42,-34 99,-64 157,-85l-179 0 0 105z"/>
   </g>
  </g>
 </g>
</svg>
